<svg width="31" height="29" viewBox="0 0 31 29" fill="none" xmlns="http://www.w3.org/2000/svg">
<path d="M14.0919 0.690724C14.3913 -0.230587 15.6947 -0.230588 15.994 0.690722L18.8597 9.51038C18.9936 9.92241 19.3775 10.2014 19.8108 10.2014H29.0843C30.053 10.2014 30.4558 11.441 29.6721 12.0104L22.1696 17.4612C21.8192 17.7159 21.6725 18.1672 21.8064 18.5793L24.672 27.3989C24.9714 28.3202 23.9169 29.0864 23.1332 28.517L15.6308 23.0661C15.2803 22.8115 14.8057 22.8115 14.4552 23.0661L6.95273 28.517C6.16902 29.0864 5.11454 28.3202 5.41389 27.3989L8.27957 18.5793C8.41345 18.1672 8.26679 17.7159 7.9163 17.4612L0.413851 12.0104C-0.369863 11.441 0.0329123 10.2014 1.00164 10.2014H10.2752C10.7084 10.2014 11.0924 9.92241 11.2262 9.51038L14.0919 0.690724Z" fill="#0071DC"/>
<path d="M14.0919 0.690724C14.3913 -0.230587 15.6947 -0.230588 15.994 0.690722L18.8597 9.51038C18.9936 9.92241 19.3775 10.2014 19.8108 10.2014H29.0843C30.053 10.2014 30.4558 11.441 29.6721 12.0104L22.1696 17.4612C21.8192 17.7159 21.6725 18.1672 21.8064 18.5793L24.672 27.3989C24.9714 28.3202 23.9169 29.0864 23.1332 28.517L15.6308 23.0661C15.2803 22.8115 14.8057 22.8115 14.4552 23.0661L6.95273 28.517C6.16902 29.0864 5.11454 28.3202 5.41389 27.3989L8.27957 18.5793C8.41345 18.1672 8.26679 17.7159 7.9163 17.4612L0.413851 12.0104C-0.369863 11.441 0.0329123 10.2014 1.00164 10.2014H10.2752C10.7084 10.2014 11.0924 9.92241 11.2262 9.51038L14.0919 0.690724Z" fill="white" fill-opacity="0.6"/>
</svg>
