<svg xmlns="http://www.w3.org/2000/svg" width="25" height="30" viewBox="0 0 25 30" fill="none">
  <path d="M1.96582 27.9904C4.33388 29.3576 7.03062 30.0515 9.76449 29.997C12.4984 29.9426 15.1653 29.1419 17.4771 27.6815C19.7888 26.2211 21.6574 24.1565 22.8808 21.7111C24.1042 19.2656 24.6358 16.5322 24.4183 13.8065C24.2007 11.0808 23.2422 8.46636 21.6464 6.24592C20.0506 4.02548 17.8782 2.2835 15.364 1.20829C12.8499 0.133086 10.0897 -0.234428 7.38177 0.145481C4.67389 0.525389 2.12136 1.63827 0.000155449 3.3638L9.46582 15L1.96582 27.9904Z" fill="#67B044"/>
  <path d="M1.96582 27.9904C4.33388 29.3576 7.03062 30.0515 9.76449 29.997C12.4984 29.9426 15.1653 29.1419 17.4771 27.6815C19.7888 26.2211 21.6574 24.1565 22.8808 21.7111C24.1042 19.2656 24.6358 16.5322 24.4183 13.8065C24.2007 11.0808 23.2422 8.46636 21.6464 6.24592C20.0506 4.02548 17.8782 2.2835 15.364 1.20829C12.8499 0.133086 10.0897 -0.234428 7.38177 0.145481C4.67389 0.525389 2.12136 1.63827 0.000155449 3.3638L9.46582 15L1.96582 27.9904Z" fill="white" fill-opacity="0.2"/>
</svg>