<svg xmlns="http://www.w3.org/2000/svg" width="26" height="30" viewBox="0 0 26 30" fill="none">
  <path d="M11.4902 0.401182C12.4184 -0.134717 13.562 -0.134717 14.4902 0.401182L24.4806 6.16913C25.4088 6.70503 25.9806 7.69541 25.9806 8.76721V20.3031C25.9806 21.3749 25.4088 22.3653 24.4806 22.9012L14.4902 28.6691C13.562 29.205 12.4184 29.205 11.4902 28.6691L1.49985 22.9012C0.57165 22.3653 -0.000146866 21.3749 -0.000146866 20.3031V8.76721C-0.000146866 7.69541 0.57165 6.70503 1.49985 6.16913L11.4902 0.401182Z" fill="#7644E1"/>
  <path d="M11.4902 0.401182C12.4184 -0.134717 13.562 -0.134717 14.4902 0.401182L24.4806 6.16913C25.4088 6.70503 25.9806 7.69541 25.9806 8.76721V20.3031C25.9806 21.3749 25.4088 22.3653 24.4806 22.9012L14.4902 28.6691C13.562 29.205 12.4184 29.205 11.4902 28.6691L1.49985 22.9012C0.57165 22.3653 -0.000146866 21.3749 -0.000146866 20.3031V8.76721C-0.000146866 7.69541 0.57165 6.70503 1.49985 6.16913L11.4902 0.401182Z" fill="white" fill-opacity="0.4"/>
</svg>