<svg width="424" height="264" viewBox="0 0 424 264" fill="none" xmlns="http://www.w3.org/2000/svg">
<path opacity="0.5" d="M348.101 221.225C230.361 284.444 140.473 234.772 153.132 187.68C158.964 165.986 175.351 90.4982 215.169 52.853C261.873 8.69753 368.155 -4.0986 396.212 38.016C426.036 82.785 421.517 181.804 348.101 221.225Z" fill="#0071DC"/>
<path opacity="0.5" d="M351.148 230.123C220.911 298.641 121.484 244.806 135.488 193.766C141.938 170.255 160.064 88.4406 204.107 47.6404C255.571 -0.0335783 368.747 -18.7807 402.262 30.5112C435.255 79.0323 432.356 187.399 351.148 230.123Z" stroke="#0071DC" stroke-width="3"/>
<path d="M227.212 20.7222C116.021 -16.1938 30.8075 95.7661 2.09961 156.36C56.1311 169.644 169.726 197.751 191.852 203.903C196.613 97.3504 231.88 65.818 248.918 63.3709C243.783 53.1166 232.253 30.2305 227.212 20.7222Z" fill="#9567F9"/>
<path d="M89.3114 70.7134C65.7706 86.3527 40.2678 125.451 30.4591 143.045L172.882 189.572L189.753 120.368C161.373 106.814 101.553 77.9074 89.3114 70.7134Z" fill="white" fill-opacity="0.88"/>
<path d="M148.74 25.0962C137.7 29.4034 113.427 49.1804 102.67 58.5307L190.665 112.052L217.4 75.757C200.669 62.5372 163.513 33.8973 148.74 25.0962Z" fill="white" fill-opacity="0.88"/>
<path d="M219.318 20.0244C219.318 20.0244 196.404 16.8768 181 20.0244L219.318 73.8602L241.567 58.6547L219.318 20.0244Z" fill="white" fill-opacity="0.88"/>
<path d="M191.853 203.904C196.614 97.3512 231.881 65.8188 248.919 63.3717V69.3146C202.986 93.0862 192.903 175.471 193.604 213.692L0 167.547L2.10058 156.361C56.1321 169.645 169.727 197.751 191.853 203.904Z" fill="#7644E1"/>
<path d="M158.943 166.541L161.332 167.349L160.904 168.61L158.516 167.802L158.943 166.541ZM172.111 171.167L174.289 171.904L173.861 173.164L171.683 172.428L172.111 171.167ZM169.757 169.38C169.45 169.275 169.169 169.243 168.915 169.283C168.662 169.318 168.41 169.431 168.159 169.622C167.909 169.808 167.636 170.083 167.339 170.444C166.831 171.054 166.336 171.574 165.852 172.005C165.365 172.429 164.845 172.713 164.291 172.856C163.732 172.997 163.102 172.949 162.4 172.712C161.731 172.485 161.205 172.13 160.821 171.646C160.438 171.162 160.209 170.595 160.135 169.945C160.057 169.288 160.145 168.585 160.399 167.836C160.593 167.265 160.855 166.777 161.185 166.371C161.51 165.964 161.893 165.65 162.336 165.427C162.773 165.202 163.257 165.081 163.786 165.061C164.316 165.043 164.883 165.135 165.488 165.34L164.701 167.66C164.377 167.55 164.079 167.488 163.807 167.475C163.535 167.461 163.292 167.493 163.079 167.571C162.868 167.643 162.691 167.758 162.548 167.914C162.399 168.068 162.287 168.255 162.213 168.476C162.101 168.805 162.075 169.096 162.133 169.35C162.191 169.604 162.314 169.817 162.502 169.989C162.687 170.153 162.92 170.284 163.201 170.378C163.476 170.472 163.733 170.504 163.971 170.477C164.211 170.444 164.459 170.332 164.715 170.143C164.967 169.951 165.255 169.67 165.579 169.299C166.087 168.69 166.587 168.175 167.079 167.752C167.571 167.33 168.094 167.047 168.648 166.904C169.202 166.761 169.83 166.809 170.531 167.046C171.227 167.281 171.766 167.644 172.148 168.133C172.524 168.621 172.742 169.199 172.804 169.869C172.86 170.537 172.758 171.254 172.499 172.019C172.331 172.515 172.099 172.986 171.803 173.432C171.501 173.877 171.135 174.249 170.702 174.547C170.27 174.846 169.769 175.03 169.197 175.101C168.62 175.17 167.97 175.083 167.247 174.838L168.037 172.51C168.431 172.643 168.777 172.703 169.076 172.69C169.37 172.676 169.624 172.611 169.837 172.497C170.046 172.376 170.22 172.218 170.358 172.024C170.496 171.831 170.602 171.623 170.677 171.403C170.794 171.058 170.828 170.754 170.779 170.491C170.732 170.223 170.619 169.995 170.442 169.809C170.261 169.616 170.033 169.473 169.757 169.38Z" fill="#0071DC"/>
<path d="M184.252 96.4341L185.73 97.8048L185.004 98.5851L183.526 97.2143L184.252 96.4341ZM192.345 104.118L193.692 105.368L192.966 106.148L191.619 104.898L192.345 104.118ZM191.213 102.043C191.023 101.867 190.828 101.751 190.63 101.697C190.434 101.64 190.213 101.64 189.967 101.698C189.724 101.752 189.434 101.862 189.099 102.029C188.528 102.308 187.996 102.526 187.502 102.682C187.007 102.832 186.534 102.869 186.083 102.792C185.629 102.712 185.184 102.471 184.75 102.068C184.336 101.684 184.069 101.253 183.948 100.774C183.827 100.295 183.846 99.8065 184.005 99.308C184.164 98.8029 184.459 98.3187 184.89 97.8551C185.219 97.5017 185.57 97.2311 185.944 97.0434C186.314 96.8525 186.698 96.7484 187.093 96.7305C187.486 96.7096 187.879 96.7788 188.272 96.9385C188.665 97.0979 189.048 97.351 189.423 97.6982L188.087 99.1336C187.886 98.9479 187.689 98.8053 187.495 98.706C187.301 98.6071 187.114 98.5512 186.933 98.5386C186.755 98.5225 186.588 98.548 186.433 98.6148C186.274 98.6788 186.13 98.7787 186.003 98.9158C185.814 99.1192 185.699 99.323 185.658 99.5275C185.617 99.7317 185.637 99.9275 185.718 100.114C185.799 100.295 185.927 100.466 186.1 100.627C186.27 100.785 186.447 100.893 186.63 100.951C186.816 101.005 187.034 101.005 187.283 100.951C187.529 100.893 187.832 100.783 188.19 100.618C188.76 100.339 189.295 100.126 189.792 99.9792C190.29 99.832 190.765 99.7971 191.216 99.874C191.667 99.9505 192.11 100.19 192.544 100.593C192.974 100.993 193.249 101.434 193.367 101.916C193.481 102.394 193.451 102.888 193.276 103.397C193.098 103.903 192.789 104.393 192.348 104.866C192.063 105.173 191.739 105.441 191.376 105.67C191.01 105.896 190.621 106.048 190.208 106.124C189.794 106.2 189.367 106.171 188.927 106.036C188.483 105.897 188.037 105.621 187.59 105.205L188.93 103.765C189.174 103.991 189.407 104.148 189.63 104.237C189.849 104.322 190.055 104.358 190.248 104.344C190.441 104.325 190.62 104.266 190.784 104.17C190.948 104.074 191.094 103.957 191.221 103.821C191.419 103.607 191.544 103.397 191.594 103.189C191.648 102.977 191.64 102.775 191.572 102.581C191.503 102.38 191.384 102.201 191.213 102.043Z" fill="#0071DC"/>
<path d="M218.974 65.1958L219.556 66.0187L219.12 66.3257L218.538 65.5027L218.974 65.1958ZM222.139 69.789L222.669 70.5392L222.233 70.8465L221.703 70.0959L222.139 69.789ZM221.8 68.6574C221.725 68.5514 221.642 68.4749 221.55 68.428C221.461 68.3798 221.352 68.3571 221.226 68.3599C221.101 68.3613 220.948 68.3854 220.767 68.4326C220.459 68.5102 220.176 68.5616 219.918 68.5875C219.661 68.6098 219.426 68.5791 219.213 68.4952C218.999 68.4092 218.807 68.2452 218.636 68.0037C218.473 67.7729 218.386 67.5342 218.377 67.2877C218.367 67.0409 218.427 66.8039 218.556 66.5763C218.686 66.3456 218.881 66.139 219.14 65.9568C219.337 65.8177 219.537 65.7216 219.739 65.6681C219.94 65.6132 220.138 65.6017 220.334 65.6338C220.528 65.6639 220.713 65.7384 220.889 65.8569C221.065 65.9754 221.226 66.1386 221.373 66.347L220.571 66.9119C220.493 66.8 220.411 66.7102 220.326 66.6417C220.242 66.5732 220.156 66.5263 220.068 66.5015C219.983 66.4753 219.899 66.4707 219.816 66.4875C219.731 66.5022 219.651 66.5365 219.575 66.5903C219.461 66.6703 219.384 66.7584 219.343 66.8542C219.301 66.95 219.291 67.0475 219.311 67.1475C219.332 67.2444 219.377 67.3408 219.445 67.4377C219.512 67.5324 219.587 67.6034 219.671 67.6506C219.756 67.6964 219.862 67.7187 219.99 67.718C220.117 67.7152 220.276 67.6922 220.468 67.6485C220.776 67.5709 221.059 67.5219 221.318 67.5013C221.577 67.4807 221.813 67.5121 222.026 67.5964C222.238 67.6803 222.43 67.8432 222.601 68.0851C222.77 68.3249 222.859 68.5689 222.867 68.8168C222.873 69.0629 222.807 69.3017 222.67 69.5324C222.53 69.7617 222.328 69.9694 222.064 70.1557C221.892 70.2763 221.706 70.3738 221.505 70.4486C221.303 70.5217 221.097 70.5553 220.886 70.55C220.676 70.5448 220.471 70.4864 220.269 70.3749C220.066 70.2616 219.877 70.0802 219.701 69.8309L220.505 69.2642C220.601 69.4002 220.699 69.5013 220.799 69.5673C220.897 69.6317 220.994 69.6705 221.09 69.6838C221.187 69.6939 221.28 69.6838 221.37 69.6537C221.46 69.6236 221.544 69.5817 221.62 69.5278C221.739 69.4439 221.822 69.3537 221.868 69.2569C221.916 69.159 221.934 69.0594 221.92 68.9573C221.907 68.8521 221.867 68.7521 221.8 68.6574Z" fill="#0071DC"/>
<path d="M165.639 125.685L164.135 125.135L148.873 166.747L150.377 167.297L165.639 125.685Z" fill="#0071DC"/>
<path d="M200.009 69.4639L199.052 68.6216L175.704 95.0674L176.66 95.9097L200.009 69.4639Z" fill="#0071DC"/>
<path d="M235.166 51.2709L234.599 50.3677L214.563 62.9054L215.13 63.8086L235.166 51.2709Z" fill="#0071DC"/>
<path d="M168.788 133.568L167.376 133.032L153.589 169.219L155.001 169.756L168.788 133.568Z" fill="#0071DC"/>
<path d="M201.759 75.358L200.838 74.5269L179.352 98.26L180.273 99.0911L201.759 75.358Z" fill="#0071DC"/>
<path d="M230.795 57.1222L230.145 56.144L216.399 65.2578L217.049 66.236L230.795 57.1222Z" fill="#0071DC"/>
<path d="M124.191 48.4675C140.338 46.7807 132.647 39.3004 135.021 35.7192C132.997 38.102 130.179 41.4188 130.354 43.2744C128.434 43.6279 125.445 46.8839 124.191 48.4675Z" fill="#0666C1"/>
<path d="M123.56 52.6412L124.191 48.4641C138.57 46.4742 132.647 39.2966 135.021 35.7155C135.513 35.5176 137.172 35.2432 138.741 34.7695L146.826 33.2544C147.362 39.2018 153.481 38.1059 151.384 43.3937C151.085 44.1492 146.416 42.7036 146.416 42.7036C146.416 42.7036 149.534 49.7998 156.004 53.0785C162.474 56.3573 170.982 64.3309 189.258 70.5913C189.072 74.5307 187.171 74.7649 184.704 75.9528C184.028 86.4043 166.27 76.4856 165.951 85.445C165.705 88.3099 164.187 90.0973 162.105 89.9728C154.833 85.6569 145.557 67.3803 144.466 66.6612C143.375 65.9421 136.246 61.5426 132.347 59.2648C131.62 54.7565 126.391 53.3956 123.56 52.6412Z" fill="#0071DC"/>
<path d="M123.56 52.6418L124.191 48.4646C132.216 49.4431 148.198 55.3846 149.423 47.5054C150.99 49.4851 152.835 51.2393 156.004 53.0795C141.083 53.9552 145.459 67.7532 132.347 59.2653C131.62 54.7575 126.39 53.3962 123.56 52.6418Z" fill="#0666C1"/>
<path d="M184.666 75.7573L158.771 58.4058C167.075 62.986 180.976 73.0575 187.923 73.4459C188.192 73.4609 188.356 73.7451 188.177 73.9461C187.35 74.8746 185.795 75.5563 184.946 75.8035C184.85 75.8311 184.748 75.8129 184.666 75.7573Z" fill="#2B6FD9"/>
<path d="M193.556 27.7878L196.163 24.8093C208.523 32.1139 209.111 31.5556 212.874 20.3745C213.38 20.4126 214.951 20.8999 216.511 21.1653C216.324 28.7708 219.576 35.8949 222.05 34.6906C222.05 34.6906 225.204 43.9717 231.459 48.5208C230.875 56.9832 221.146 50.4068 211.475 57.8023C210.92 54.7308 210.535 52.6358 210.349 52.3411C209.629 51.1979 206.472 47.3976 203.795 43.5777C205.148 38.0092 196.688 30.3187 193.556 27.7878Z" fill="#FFB700"/>
<path d="M213.646 37.1178L214.57 35.8498M208.469 30.6421C209.349 31.5017 210.6 32.1813 211.728 33.495L208.469 30.6421ZM221.746 54.5546C218.894 52.9053 214.746 44.4097 214.243 40.0983C214.108 38.9485 213.903 37.9655 213.646 37.1178L221.746 54.5546ZM211.728 33.495L212.275 32.0603L211.728 33.495ZM211.728 33.495C212.146 33.9817 212.547 34.5557 212.906 35.258L211.728 33.495ZM212.906 35.258L213.505 34.032L212.906 35.258ZM212.906 35.258C213.181 35.7963 213.431 36.4099 213.646 37.1178L212.906 35.258Z" stroke="white"/>
<path d="M212.873 20.3755C209.111 31.5565 208.523 32.1127 196.163 24.8085C199.034 25.3955 208.523 27.2577 212.873 20.3755Z" fill="#EBA900"/>
<path d="M58.7443 123.465L58.5801 116.81C77.5277 113.789 74.236 99.5178 70.6948 92.1604C71.3421 91.6203 73.6241 90.3943 75.7278 88.9097C81.1316 98.4183 88.1128 99.824 93.1612 99.4541L104.836 108.319C119.107 110.93 142.1 111.716 156.403 118.726C157.138 124.803 154.505 126.085 151.308 129.092C151.077 143.543 133.049 145.857 134.87 159.627C135.248 164.1 133.549 167.556 130.567 168.381C119.166 165.367 93.6563 135.143 91.9282 134.582C90.1998 134.021 83.5262 133.037 77.4233 131.476C74.9534 123.104 64.4487 122.926 58.7443 123.465Z" fill="#9567F9"/>
<path d="M58.7421 117.765C66.5706 121.601 76.3169 111.039 83.0066 115.575C92.9959 122.347 98.5614 109.43 102.988 112.538" stroke="#FDD333"/>
<path d="M104.838 108.318C102.881 116.526 95.4179 129.246 91.9309 134.58C91.6792 134.499 91.3228 134.408 90.8789 134.308C94.6621 128.205 102.577 114.331 103.975 107.663L104.838 108.318Z" fill="#FDD333"/>
<path d="M103.258 111.828C104.692 110.376 108.136 107.861 110.436 109.417C112.737 110.973 115.281 109.887 116.265 109.149M103.258 111.828C102.064 112.854 99.3481 114.574 98.0349 113.24C96.3933 111.574 101.704 111.045 103.258 111.828ZM103.258 111.828C102.677 113.329 101.977 116.463 103.818 116.994C106.119 117.657 104.457 113.539 103.258 111.828ZM103.258 111.828C104.84 111.417 108.974 111.16 112.847 113.417C116.72 115.674 118.311 115.611 118.622 115.297L103.258 111.828Z" stroke="#7644E1"/>
<path d="M151.37 128.572L110.851 113.555C123.822 116.478 150.431 122.413 155.717 123.369C155.922 123.406 156.044 123.61 155.969 123.805C155.202 125.801 152.912 127.709 151.68 128.537C151.589 128.598 151.473 128.61 151.37 128.572Z" fill="#7644E1"/>
<path d="M124.072 147.744C119.571 146.7 104.413 128.406 104.413 128.406C104.413 128.406 118.684 142.444 124.494 145.291C129.833 147.908 139.663 146.624 139.663 146.624C139.663 146.624 130.018 149.125 124.072 147.744Z" fill="#7644E1"/>
<path d="M91.928 134.583C91.9567 134.592 91.992 134.609 92.0337 134.635C101.723 139.476 128.626 165.367 134.869 159.628C135.248 164.101 133.549 167.557 130.567 168.382C119.356 165.418 94.5012 136.142 92.0337 134.635C91.9983 134.617 91.963 134.6 91.928 134.583Z" fill="#7644E1"/>
<path d="M187.399 77.1271C188.908 54.2742 171.884 42.3398 164.216 43.1396L164.112 42.4485C177.037 33.0804 196.538 61.4343 190.86 76.6066C189.845 77.7018 188.84 79.1729 187.399 77.1271Z" fill="#292561"/>
<path d="M191.837 76.3419C190.996 74.9936 189.219 74.5816 187.869 75.4217C186.518 76.2618 186.106 78.0359 186.947 79.3841L203.469 105.861C204.31 107.209 206.087 107.621 207.437 106.781C208.787 105.941 209.2 104.167 208.359 102.818L191.837 76.3419Z" fill="#7C3A3A"/>
<path d="M189.302 76.8422C170.032 72.3162 162.826 49.1832 166.331 41.8741L165.786 41.4351C154.705 45.809 170.496 81.2623 187.052 79.2169C188.512 78.8957 190.343 79.1176 189.302 76.8422Z" fill="#7C3A3A"/>
<path d="M305.285 193.067C320.105 193.65 353.598 195.549 378.805 197.786C366.377 209.672 338.894 232.22 295.482 243.057C299.61 222.086 303.405 201.725 305.285 193.067Z" fill="#FFB700"/>
<path d="M334.037 56.5189C320.246 54.334 322.819 30.6078 323.688 23.4771C312.653 30.0055 322.364 42.7898 317.361 49.4259C299.247 73.4555 301.943 79.2261 313.573 87.155C333.441 100.702 333.434 60.3171 334.037 56.5189Z" fill="#7C3A3A"/>
<path d="M360.073 71.4117C355.683 70.6301 347.501 57.5777 344.231 51.0552C341.536 52.1696 335.297 54.508 331.912 54.9453C331.817 63.207 326.776 72.3699 322.445 73.2928C314.659 84.6543 362.303 83.4496 360.073 71.4117Z" fill="#FECFC3"/>
<path d="M322.445 73.2938C314.659 84.6553 362.303 83.451 360.073 71.4131C359.797 71.3634 359.503 71.2652 359.198 71.1226C342.218 81.5503 321.913 77.8797 323.838 72.7345C323.369 73.0061 322.904 73.1963 322.445 73.2938Z" fill="#E9B0A1"/>
<path d="M344.237 51.0571C341.538 52.1716 335.299 54.5103 331.917 54.9476C331.885 57.5989 331.588 58.197 331.073 60.8926C339.738 58.7046 344.597 53.3032 344.237 51.0571Z" fill="#E9B0A1"/>
<path d="M346.249 53.3418C323.672 66.5613 320.822 41.0365 323.693 23.478L350.363 27.4598C351.494 35.1849 353.006 49.386 346.249 53.3418Z" fill="#FECFC3"/>
<path d="M338.964 28.7094C333.776 28.9174 325.8 27.0828 323.696 23.4643C327.281 15.5186 332.991 10.0599 350.535 16.7089C368.075 23.358 358.419 59.751 382.211 61.199C406.004 62.6466 408.213 87.7627 395.953 96.6554C367.591 117.221 364.665 73.5099 359.791 71.2813C343.97 64.0453 345.154 55.069 345.77 48.0823C345.857 47.0919 350.535 46.9639 350.16 39.7713C350.006 36.8257 345.038 40.4197 345.262 38.9952C345.49 37.5706 344.149 28.5018 338.964 28.7094Z" fill="#7C3A3A"/>
<path d="M382.75 56.4051C395.672 56.5872 403.893 67.267 406.389 72.5841C391.986 51.6525 382.537 62.5896 373.725 54.9757C363.558 46.1906 359.774 26.3445 353.038 29.9399C351.865 27.424 356.787 25.4971 355.502 24.1138C364.528 25.5432 366.597 56.1775 382.75 56.4051Z" fill="#7C3A3A"/>
<path d="M353.341 6.73218C358.666 7.57573 362.276 12.6971 361.407 18.1712C361.096 20.1142 360.266 21.8405 359.083 23.2213C355.603 14.4978 346.742 12.6856 342.747 12.8702C344.445 8.65768 348.783 6.00994 353.341 6.73218Z" fill="#7C3A3A"/>
<path d="M251.544 137.658C253.785 134.582 268.057 117.732 271.324 111.44L293.906 129.443C288.654 139.581 265.958 167.414 256.62 171.393C242.266 177.511 211.495 113.887 208.345 113.887C202.463 114.726 198.192 110.857 196.791 108.818C195.099 108.294 191.925 106.755 192.765 104.798C191.365 104.798 187.864 101.826 190.314 98.8548C188.563 99.0296 185.938 97.1069 187.864 93.9606C185.413 94.1354 181.037 89.5909 182.262 88.5421C183.487 87.4934 187.163 84.1723 190.314 85.3959C192.835 86.3747 197.55 88.6005 199.592 89.5909C199.942 88.3093 200.432 85.4308 199.592 84.1723C195.216 79.453 193.816 70.7134 196.791 70.7134C199.767 70.7134 200.467 75.7823 204.844 80.3269C219.898 90.8144 212.196 96.7573 215.697 100.603C223.224 117.208 248.743 141.504 251.544 137.658Z" fill="#FECFC3"/>
<path d="M271.325 111.439L293.907 129.442C291.407 134.268 284.954 143.103 277.872 151.466C277.241 146.222 280.603 137.658 278.502 136.784C276.822 136.085 268.249 126.471 264.173 121.752C267.298 117.683 270.093 113.811 271.325 111.439Z" fill="#E9B0A1"/>
<path d="M262.572 112.314C277.276 92.0378 292.214 83.4149 296.882 81.2007C328.04 94.1352 312.286 128.045 301.783 140.63C284.628 138.882 265.723 124.199 262.572 112.314Z" fill="#0071DC"/>
<path d="M301.783 140.629C284.628 138.881 265.723 124.199 262.572 112.313C263.178 111.478 263.784 110.662 264.39 109.866C267.675 118.256 280.186 135.595 303.943 137.832C303.212 138.852 302.487 139.788 301.783 140.629Z" fill="#0666C1"/>
<path d="M312.772 95.1842C320.026 110.671 309.491 131.394 301.782 140.63C295.672 140.007 289.34 137.744 283.577 134.551C298.981 86.3387 309.46 88.218 312.772 95.1842Z" fill="#286EDC"/>
<path d="M206.946 103.224C208.638 104.39 209.992 106.65 201.87 106.37C200.89 106.37 200.411 107.303 200.294 107.769M199.594 89.5903C200.703 90.2895 202.15 91.9675 199.069 93.0862L199.594 89.5903ZM187.865 93.9601C188.682 92.387 192.067 90.0098 199.069 93.0862L187.865 93.9601ZM190.316 98.8543C196.442 95.708 203.62 97.9803 206.071 98.8543H190.316ZM192.767 104.797C196.793 100.253 201.17 101.127 206.946 103.224L192.767 104.797ZM199.069 93.0862C207.821 96.9316 208.522 98.3299 206.071 98.8543L199.069 93.0862ZM206.071 98.8543C207.063 99.6118 208.627 101.546 206.946 103.224L206.071 98.8543Z" stroke="#E9B0A1"/>
<path d="M296.881 81.2009C305.283 75.6076 317.712 73.1605 323.663 72.8109C320.513 82.2497 351.321 79.1034 359.723 71.4126C372.327 75.0832 376.003 77.5303 384.055 82.9488C384.055 85.0463 367.951 131.89 370.051 146.923C371.693 158.663 379.455 175.522 383.88 191.669C382.48 193.592 381.429 194.99 378.454 198.136C358.208 193.521 310.36 209.498 302.133 198.311C304.349 190.97 308.364 171.253 301.082 151.117C291.98 125.948 293.555 110.915 296.881 81.2009Z" fill="#0071DC"/>
<path d="M384.058 82.9497C384.058 85.0472 367.953 131.891 370.054 146.923C371.419 156.681 376.912 169.974 381.271 183.455C369.795 184.434 325.591 173.958 304.925 168.598C304.411 163.015 303.245 157.085 301.085 151.118C298.889 145.052 297.318 139.575 296.239 134.338C318.526 130.318 312.113 158.11 316.489 158.11C370.404 155.663 366.203 151.118 366.203 146.923C366.203 142.728 355 146.923 355 142.379C351.218 105.183 372.795 87.2615 384.058 82.9497Z" fill="#286EDC"/>
<path d="M280.609 129.162C280.338 128.06 281.173 126.997 282.309 126.997H302.798C303.603 126.997 304.307 127.546 304.499 128.328L314.904 170.627C315.174 171.729 314.34 172.792 313.203 172.792H292.714C291.908 172.792 291.206 172.243 291.014 171.461L280.609 129.162Z" fill="#3E388F"/>
<path d="M398.41 138.882C400.51 151.118 402.121 168.709 398.41 177.161C392.808 189.921 329.791 174.014 318.238 171.043C314.387 169.994 302.308 167.896 298.457 162.828C296.731 160.555 296.532 158.633 293.556 157.584C290.58 156.535 285.897 154.479 286.554 152.515C286.904 151.466 291.28 152.515 291.28 152.515C291.28 152.515 290.23 151.291 288.129 150.767C286.601 150.386 284.628 149.369 284.103 146.921C283.742 145.238 288.304 147.97 289.53 147.621C290.755 147.271 283.394 146.255 282.003 142.552C281.42 141 283.753 139.755 283.753 141.613C284.947 141.793 286.34 141.923 287.079 141.986C285.953 141.841 283.278 141.199 281.652 138.357C280.777 136.958 282.527 135.735 283.053 137.409C284.223 137.696 285.548 138.231 286.554 138.008C288.129 137.658 296.006 138.707 303.183 145.699C304.979 147.447 307.21 145 306.684 136.435C312.986 140.106 310.536 146.572 312.111 152.864C312.853 155.836 313.847 158.838 315.262 159.506C318.588 161.08 365.326 156.011 367.251 155.836C368.792 155.696 367.892 146.456 367.251 140.105L398.41 138.882Z" fill="#FECFC3"/>
<path d="M287.254 142.028C288.654 142.844 291.945 144.51 293.906 144.65" stroke="#E9B0A1"/>
<path d="M289.354 147.447C290.055 147.855 291.805 148.67 293.206 148.67" stroke="#E9B0A1"/>
<path d="M398.411 138.882L367.252 140.106C367.466 142.206 367.704 144.623 367.875 146.922C373.008 148.379 386.539 150.418 399.594 146.922C399.247 144.102 398.838 141.38 398.411 138.882Z" fill="#E9B0A1"/>
<path d="M408.387 139.056C404.886 98.679 389.832 86.2688 383.705 82.7729C357.273 87.8419 355.347 131.015 357.973 140.279C364.625 143.076 389.307 148.495 408.387 139.056Z" fill="#0071DC"/>
<path d="M357.974 140.281C364.626 143.077 389.308 148.496 408.388 139.057C408.332 138.409 408.272 137.768 408.209 137.134C388.324 144.406 366.054 140.164 357.403 137.134C357.55 138.409 357.746 139.473 357.974 140.281Z" fill="#0666C1"/>
</svg>
