<svg width="77" height="23" viewBox="0 0 77 23" fill="none" xmlns="http://www.w3.org/2000/svg">
<circle cx="6" cy="11.0459" r="5.5" fill="#B9BABE" stroke="#B9BABE"/>
<circle cx="31" cy="11.0459" r="5.5" fill="#EDEDF6" stroke="#EDEDF6"/>
<path d="M50 9.54594C49.1716 9.54594 48.5 10.2175 48.5 11.0459C48.5 11.8744 49.1716 12.5459 50 12.5459L50 9.54594ZM76.0607 12.1066C76.6464 11.5208 76.6464 10.5711 76.0607 9.98528L66.5147 0.439341C65.9289 -0.146446 64.9792 -0.146446 64.3934 0.439341C63.8076 1.02513 63.8076 1.97488 64.3934 2.56066L72.8787 11.0459L64.3934 19.5312C63.8076 20.117 63.8076 21.0668 64.3934 21.6525C64.9792 22.2383 65.9289 22.2383 66.5147 21.6525L76.0607 12.1066ZM50 12.5459L75 12.5459L75 9.54594L50 9.54594L50 12.5459Z" fill="#B9BABE"/>
</svg>
